solid OpenSCAD_Model
  facet normal -0.954144 -0.299349 0
    outer loop
      vertex -113 0 0
      vertex -112.967 -0.105184 0.493463
      vertex -113 0 2.79609
    endloop
  endfacet
  facet normal -0.953701 -0.300757 -0.000329802
    outer loop
      vertex -111.033 -6.23735 0
      vertex -112.967 -0.105184 0.493463
      vertex -113 0 0
    endloop
  endfacet
  facet normal -0.953693 -0.300782 0
    outer loop
      vertex -112.967 -0.105184 0.493463
      vertex -111.033 -6.23735 0
      vertex -111.033 -6.23735 0.592466
    endloop
  endfacet
  facet normal -0.500005 -0.866022 0
    outer loop
      vertex -95.8115 -17.6336 0
      vertex -105.219 -12.2021 0.890167
      vertex -105.219 -12.2021 0
    endloop
  endfacet
  facet normal -0.500005 -0.866022 0
    outer loop
      vertex -105.219 -12.2021 0.890167
      vertex -95.8115 -17.6336 0
      vertex -95.8115 -17.6336 1.37186
    endloop
  endfacet
  facet normal -0.347173 -0.937801 0
    outer loop
      vertex -83.2218 -22.2943 0
      vertex -95.8115 -17.6336 1.37186
      vertex -95.8115 -17.6336 0
    endloop
  endfacet
  facet normal -0.347173 -0.937801 0
    outer loop
      vertex -95.8115 -17.6336 1.37186
      vertex -83.2218 -22.2943 0
      vertex -83.2218 -22.2943 2.01649
    endloop
  endfacet
  facet normal -0.1468 -0.989166 0
    outer loop
      vertex -50.8115 -28.5317 0
      vertex -68 -25.9808 2.79588
      vertex -68 -25.9808 0
    endloop
  endfacet
  facet normal -0.1468 -0.989166 0
    outer loop
      vertex -68 -25.9808 2.79588
      vertex -50.8115 -28.5317 0
      vertex -50.8115 -28.5317 3.67598
    endloop
  endfacet
  facet normal -0.235381 -0.971903 0
    outer loop
      vertex -68 -25.9808 0
      vertex -83.2218 -22.2943 2.01649
      vertex -83.2218 -22.2943 0
    endloop
  endfacet
  facet normal -0.235381 -0.971903 0
    outer loop
      vertex -83.2218 -22.2943 2.01649
      vertex -68 -25.9808 0
      vertex -68 -25.9808 2.79588
    endloop
  endfacet
  facet normal -0.953693 0.300782 0
    outer loop
      vertex -111.033 6.23735 0
      vertex -112.967 0.105184 0.493463
      vertex -111.033 6.23735 0.592466
    endloop
  endfacet
  facet normal -0.953701 0.300757 -0.000329802
    outer loop
      vertex -113 0 0
      vertex -112.967 0.105184 0.493463
      vertex -111.033 6.23735 0
    endloop
  endfacet
  facet normal -0.954144 0.299349 0
    outer loop
      vertex -112.967 0.105184 0.493463
      vertex -113 0 0
      vertex -113 0 2.79609
    endloop
  endfacet
  facet normal -0.716098 0.698 0
    outer loop
      vertex -111.033 6.23735 0.592466
      vertex -105.219 12.2021 0
      vertex -111.033 6.23735 0
    endloop
  endfacet
  facet normal -0.716098 0.698 0
    outer loop
      vertex -105.219 12.2021 0
      vertex -111.033 6.23735 0.592466
      vertex -105.219 12.2021 0.890167
    endloop
  endfacet
  facet normal -0.500005 0.866022 0
    outer loop
      vertex -95.8115 17.6336 0
      vertex -105.219 12.2021 0.890167
      vertex -95.8115 17.6336 1.37186
    endloop
  endfacet
  facet normal -0.500005 0.866022 0
    outer loop
      vertex -105.219 12.2021 0.890167
      vertex -95.8115 17.6336 0
      vertex -105.219 12.2021 0
    endloop
  endfacet
  facet normal -0.235381 0.971903 0
    outer loop
      vertex -68 25.9808 0
      vertex -83.2218 22.2943 2.01649
      vertex -68 25.9808 2.79588
    endloop
  endfacet
  facet normal -0.235381 0.971903 0
    outer loop
      vertex -83.2218 22.2943 2.01649
      vertex -68 25.9808 0
      vertex -83.2218 22.2943 0
    endloop
  endfacet
  facet normal -0.716098 -0.698 0
    outer loop
      vertex -105.219 -12.2021 0
      vertex -111.033 -6.23735 0.592466
      vertex -111.033 -6.23735 0
    endloop
  endfacet
  facet normal -0.716098 -0.698 0
    outer loop
      vertex -111.033 -6.23735 0.592466
      vertex -105.219 -12.2021 0
      vertex -105.219 -12.2021 0.890167
    endloop
  endfacet
  facet normal -0.347173 0.937801 0
    outer loop
      vertex -83.2218 22.2943 0
      vertex -95.8115 17.6336 1.37186
      vertex -83.2218 22.2943 2.01649
    endloop
  endfacet
  facet normal -0.347173 0.937801 0
    outer loop
      vertex -95.8115 17.6336 1.37186
      vertex -83.2218 22.2943 0
      vertex -95.8115 17.6336 0
    endloop
  endfacet
  facet normal -0.1468 0.989166 0
    outer loop
      vertex -50.8115 28.5317 0
      vertex -68 25.9808 2.79588
      vertex -50.8115 28.5317 3.67598
    endloop
  endfacet
  facet normal -0.1468 0.989166 0
    outer loop
      vertex -68 25.9808 2.79588
      vertex -50.8115 28.5317 0
      vertex -68 25.9808 0
    endloop
  endfacet
  facet normal 0 0 -1
    outer loop
      vertex -0.655572 -6.45566 0
      vertex -0.655572 6.45566 0
      vertex 0 0 0
    endloop
  endfacet
  facet normal 0 0 -1
    outer loop
      vertex -39.7344 -29.3165 0
      vertex -0.655572 -6.45566 0
      vertex -2.59364 -12.6292 0
    endloop
  endfacet
  facet normal -0 0 -1
    outer loop
      vertex -0.655572 -6.45566 0
      vertex -39.7344 -29.3165 0
      vertex -0.655572 6.45566 0
    endloop
  endfacet
  facet normal 0 0 -1
    outer loop
      vertex -39.7344 -29.3165 0
      vertex -2.59364 -12.6292 0
      vertex -5.72949 -18.2507 0
    endloop
  endfacet
  facet normal 0 0 -1
    outer loop
      vertex -39.7344 29.3165 0
      vertex -0.655572 6.45566 0
      vertex -39.7344 -29.3165 0
    endloop
  endfacet
  facet normal 0 0 -1
    outer loop
      vertex -39.7344 -29.3165 0
      vertex -5.72949 -18.2507 0
      vertex -9.92608 -23.0746 0
    endloop
  endfacet
  facet normal 0 0 -1
    outer loop
      vertex -0.655572 6.45566 0
      vertex -39.7344 29.3165 0
      vertex -2.59364 12.6292 0
    endloop
  endfacet
  facet normal 0 0 -1
    outer loop
      vertex -39.7344 -29.3165 0
      vertex -9.92608 -23.0746 0
      vertex -15 -26.8901 0
    endloop
  endfacet
  facet normal 0 0 -1
    outer loop
      vertex -2.59364 12.6292 0
      vertex -39.7344 29.3165 0
      vertex -5.72949 18.2507 0
    endloop
  endfacet
  facet normal 0 0 -1
    outer loop
      vertex -39.7344 -29.3165 0
      vertex -15 -26.8901 0
      vertex -20.5118 -29.43 0
    endloop
  endfacet
  facet normal 0 0 -1
    outer loop
      vertex -5.72949 18.2507 0
      vertex -39.7344 29.3165 0
      vertex -9.92608 23.0746 0
    endloop
  endfacet
  facet normal 0 0 -1
    outer loop
      vertex -39.7344 -29.3165 0
      vertex -20.5118 -29.43 0
      vertex -39.4882 -29.43 0
    endloop
  endfacet
  facet normal 0 0 -1
    outer loop
      vertex -9.92608 23.0746 0
      vertex -39.7344 29.3165 0
      vertex -15 26.8901 0
    endloop
  endfacet
  facet normal 0 0 -1
    outer loop
      vertex -15 26.8901 0
      vertex -39.7344 29.3165 0
      vertex -20.5118 29.43 0
    endloop
  endfacet
  facet normal -0 0 -1
    outer loop
      vertex -20.5118 29.43 0
      vertex -39.7344 29.3165 0
      vertex -39.4882 29.43 0
    endloop
  endfacet
  facet normal 0 0 -1
    outer loop
      vertex -50.8115 -28.5317 0
      vertex -39.7344 29.3165 0
      vertex -39.7344 -29.3165 0
    endloop
  endfacet
  facet normal 0 0 -1
    outer loop
      vertex -50.8115 -28.5317 0
      vertex -50.8115 28.5317 0
      vertex -39.7344 29.3165 0
    endloop
  endfacet
  facet normal 0 0 -1
    outer loop
      vertex -68 -25.9808 0
      vertex -50.8115 28.5317 0
      vertex -50.8115 -28.5317 0
    endloop
  endfacet
  facet normal 0 0 -1
    outer loop
      vertex -68 -25.9808 0
      vertex -68 25.9808 0
      vertex -50.8115 28.5317 0
    endloop
  endfacet
  facet normal 0 0 -1
    outer loop
      vertex -83.2218 -22.2943 0
      vertex -68 25.9808 0
      vertex -68 -25.9808 0
    endloop
  endfacet
  facet normal 0 0 -1
    outer loop
      vertex -83.2218 -22.2943 0
      vertex -83.2218 22.2943 0
      vertex -68 25.9808 0
    endloop
  endfacet
  facet normal 0 0 -1
    outer loop
      vertex -95.8115 -17.6336 0
      vertex -83.2218 22.2943 0
      vertex -83.2218 -22.2943 0
    endloop
  endfacet
  facet normal 0 0 -1
    outer loop
      vertex -95.8115 -17.6336 0
      vertex -95.8115 17.6336 0
      vertex -83.2218 22.2943 0
    endloop
  endfacet
  facet normal 0 0 -1
    outer loop
      vertex -105.219 -12.2021 0
      vertex -95.8115 17.6336 0
      vertex -95.8115 -17.6336 0
    endloop
  endfacet
  facet normal 0 0 -1
    outer loop
      vertex -105.219 -12.2021 0
      vertex -105.219 12.2021 0
      vertex -95.8115 17.6336 0
    endloop
  endfacet
  facet normal 0 0 -1
    outer loop
      vertex -111.033 -6.23735 0
      vertex -105.219 12.2021 0
      vertex -105.219 -12.2021 0
    endloop
  endfacet
  facet normal 0 0 -1
    outer loop
      vertex -111.033 -6.23735 0
      vertex -111.033 6.23735 0
      vertex -105.219 12.2021 0
    endloop
  endfacet
  facet normal 0 -0 -1
    outer loop
      vertex -111.033 6.23735 0
      vertex -111.033 -6.23735 0
      vertex -113 0 0
    endloop
  endfacet
  facet normal -0.0706981 -0.997498 -0
    outer loop
      vertex -38.133 -29.43 4.32515
      vertex -39.7344 -29.3165 4.21558
      vertex -38.133 -29.43 4.30509
    endloop
  endfacet
  facet normal -0.0706064 -0.997503 -0.00134711
    outer loop
      vertex -50.8115 -28.5317 3.67598
      vertex -39.7344 -29.3165 4.21558
      vertex -38.133 -29.43 4.32515
    endloop
  endfacet
  facet normal -0.0706717 -0.9975 0
    outer loop
      vertex -39.7344 -29.3165 0
      vertex -50.8115 -28.5317 3.67598
      vertex -50.8115 -28.5317 0
    endloop
  endfacet
  facet normal -0.0706717 -0.9975 0
    outer loop
      vertex -50.8115 -28.5317 3.67598
      vertex -39.7344 -29.3165 0
      vertex -39.7344 -29.3165 4.21558
    endloop
  endfacet
  facet normal -0.0706981 0.997498 0
    outer loop
      vertex -39.7344 29.3165 4.21558
      vertex -38.133 29.43 4.32515
      vertex -38.133 29.43 4.30509
    endloop
  endfacet
  facet normal -0.0706064 0.997503 -0.00134711
    outer loop
      vertex -39.7344 29.3165 4.21558
      vertex -50.8115 28.5317 3.67598
      vertex -38.133 29.43 4.32515
    endloop
  endfacet
  facet normal -0.0706717 0.9975 0
    outer loop
      vertex -39.7344 29.3165 0
      vertex -50.8115 28.5317 3.67598
      vertex -39.7344 29.3165 4.21558
    endloop
  endfacet
  facet normal -0.0706717 0.9975 0
    outer loop
      vertex -50.8115 28.5317 3.67598
      vertex -39.7344 29.3165 0
      vertex -50.8115 28.5317 0
    endloop
  endfacet
  facet normal 0.988593 0.150438 0.00729596
    outer loop
      vertex -112.967 -0.105184 0.493463
      vertex -112.983 0 0.492614
      vertex -113 0 2.79609
    endloop
  endfacet
  facet normal 0.988593 -0.150438 0.00729596
    outer loop
      vertex -112.983 0 0.492614
      vertex -112.967 0.105184 0.493463
      vertex -113 0 2.79609
    endloop
  endfacet
  facet normal -0.0511352 0 0.998692
    outer loop
      vertex -38.133 29.43 4.32515
      vertex -33.8574 -29.43 4.54407
      vertex -33.8574 29.43 4.54407
    endloop
  endfacet
  facet normal -0.0511352 0 0.998692
    outer loop
      vertex -38.133 29.43 4.32515
      vertex -38.133 -29.43 4.32515
      vertex -33.8574 -29.43 4.54407
    endloop
  endfacet
  facet normal -0.0511354 0 0.998692
    outer loop
      vertex -50.8115 28.5317 3.67598
      vertex -38.133 -29.43 4.32515
      vertex -38.133 29.43 4.32515
    endloop
  endfacet
  facet normal -0.0511354 0 0.998692
    outer loop
      vertex -50.8115 28.5317 3.67598
      vertex -50.8115 -28.5317 3.67598
      vertex -38.133 -29.43 4.32515
    endloop
  endfacet
  facet normal -0.0511359 0 0.998692
    outer loop
      vertex -68 25.9808 2.79588
      vertex -50.8115 -28.5317 3.67598
      vertex -50.8115 28.5317 3.67598
    endloop
  endfacet
  facet normal -0.0511359 0 0.998692
    outer loop
      vertex -68 25.9808 2.79588
      vertex -68 -25.9808 2.79588
      vertex -50.8115 -28.5317 3.67598
    endloop
  endfacet
  facet normal -0.0511352 0 0.998692
    outer loop
      vertex -83.2218 22.2943 2.01649
      vertex -68 -25.9808 2.79588
      vertex -68 25.9808 2.79588
    endloop
  endfacet
  facet normal -0.0511352 0 0.998692
    outer loop
      vertex -83.2218 22.2943 2.01649
      vertex -83.2218 -22.2943 2.01649
      vertex -68 -25.9808 2.79588
    endloop
  endfacet
  facet normal -0.051136 0 0.998692
    outer loop
      vertex -95.8115 17.6336 1.37186
      vertex -83.2218 -22.2943 2.01649
      vertex -83.2218 22.2943 2.01649
    endloop
  endfacet
  facet normal -0.051136 0 0.998692
    outer loop
      vertex -95.8115 17.6336 1.37186
      vertex -95.8115 -17.6336 1.37186
      vertex -83.2218 -22.2943 2.01649
    endloop
  endfacet
  facet normal -0.0511361 0 0.998692
    outer loop
      vertex -105.219 12.2021 0.890167
      vertex -95.8115 -17.6336 1.37186
      vertex -95.8115 17.6336 1.37186
    endloop
  endfacet
  facet normal -0.0511361 0 0.998692
    outer loop
      vertex -105.219 12.2021 0.890167
      vertex -105.219 -12.2021 0.890167
      vertex -95.8115 -17.6336 1.37186
    endloop
  endfacet
  facet normal -0.0511372 0 0.998692
    outer loop
      vertex -111.033 6.23735 0.592466
      vertex -105.219 -12.2021 0.890167
      vertex -105.219 12.2021 0.890167
    endloop
  endfacet
  facet normal -0.0511372 0 0.998692
    outer loop
      vertex -111.033 6.23735 0.592466
      vertex -111.033 -6.23735 0.592466
      vertex -105.219 -12.2021 0.890167
    endloop
  endfacet
  facet normal -0.0511239 0 0.998692
    outer loop
      vertex -112.967 0.105184 0.493463
      vertex -111.033 -6.23735 0.592466
      vertex -111.033 6.23735 0.592466
    endloop
  endfacet
  facet normal -0.0511239 0 0.998692
    outer loop
      vertex -112.967 0.105184 0.493463
      vertex -112.967 -0.105184 0.493463
      vertex -111.033 -6.23735 0.592466
    endloop
  endfacet
  facet normal -0.052988 0 0.998595
    outer loop
      vertex -112.967 -0.105184 0.493463
      vertex -112.967 0.105184 0.493463
      vertex -112.983 0 0.492614
    endloop
  endfacet
  facet normal -0.0558036 3.90163e-06 0.998442
    outer loop
      vertex -15 26.8901 5.5981
      vertex -7.80962 20.6418 6
      vertex -9.92608 23.0746 5.8817
    endloop
  endfacet
  facet normal -0.0558075 0 0.998442
    outer loop
      vertex -7.80962 20.6418 6
      vertex -33.8574 29.43 4.54407
      vertex -7.80962 -20.6418 6
    endloop
  endfacet
  facet normal -0.0558078 -8.74168e-07 0.998442
    outer loop
      vertex -7.80962 20.6418 6
      vertex -15 26.8901 5.5981
      vertex -33.8574 29.43 4.54407
    endloop
  endfacet
  facet normal -0.0558075 0 0.998442
    outer loop
      vertex -33.8574 -29.43 4.54407
      vertex -7.80962 -20.6418 6
      vertex -33.8574 29.43 4.54407
    endloop
  endfacet
  facet normal -0.0558077 -4.34824e-07 0.998442
    outer loop
      vertex -33.8574 29.43 4.54407
      vertex -15 26.8901 5.5981
      vertex -20.5118 29.43 5.29002
    endloop
  endfacet
  facet normal -0.0558078 8.74168e-07 0.998442
    outer loop
      vertex -15 -26.8901 5.5981
      vertex -7.80962 -20.6418 6
      vertex -33.8574 -29.43 4.54407
    endloop
  endfacet
  facet normal -0.0558036 -3.90163e-06 0.998442
    outer loop
      vertex -7.80962 -20.6418 6
      vertex -15 -26.8901 5.5981
      vertex -9.92608 -23.0746 5.8817
    endloop
  endfacet
  facet normal -0.0558077 4.34824e-07 0.998442
    outer loop
      vertex -15 -26.8901 5.5981
      vertex -33.8574 -29.43 4.54407
      vertex -20.5118 -29.43 5.29002
    endloop
  endfacet
  facet normal -0.0558087 -1.36185e-05 0.998441
    outer loop
      vertex -39.4882 -29.43 4.22934
      vertex -38.133 -29.43 4.30509
      vertex -39.7344 -29.3165 4.21558
    endloop
  endfacet
  facet normal -0.0558087 1.36185e-05 0.998441
    outer loop
      vertex -38.133 29.43 4.30509
      vertex -39.4882 29.43 4.22934
      vertex -39.7344 29.3165 4.21558
    endloop
  endfacet
  facet normal 0.994883 0.10103 0
    outer loop
      vertex 0 0 6
      vertex -0.655572 6.45566 0
      vertex -0.655572 6.45566 6
    endloop
  endfacet
  facet normal 0.994883 0.10103 0
    outer loop
      vertex -0.655572 6.45566 0
      vertex 0 0 6
      vertex 0 0 0
    endloop
  endfacet
  facet normal 0.754455 0.656352 0
    outer loop
      vertex -7.80962 20.6418 6
      vertex -9.92608 23.0746 0
      vertex -9.92608 23.0746 5.8817
    endloop
  endfacet
  facet normal 0.754463 0.656343 -0
    outer loop
      vertex -5.72949 18.2507 0
      vertex -7.80962 20.6418 6
      vertex -5.72949 18.2507 6
    endloop
  endfacet
  facet normal 0.754459 0.656347 -3.31678e-06
    outer loop
      vertex -7.80962 20.6418 6
      vertex -5.72949 18.2507 0
      vertex -9.92608 23.0746 0
    endloop
  endfacet
  facet normal 0.873312 0.487161 0
    outer loop
      vertex -2.59364 12.6292 6
      vertex -5.72949 18.2507 0
      vertex -5.72949 18.2507 6
    endloop
  endfacet
  facet normal 0.873312 0.487161 0
    outer loop
      vertex -5.72949 18.2507 0
      vertex -2.59364 12.6292 6
      vertex -2.59364 12.6292 0
    endloop
  endfacet
  facet normal 0.994883 -0.10103 0
    outer loop
      vertex -0.655572 -6.45566 6
      vertex 0 0 0
      vertex 0 0 6
    endloop
  endfacet
  facet normal 0.994883 -0.10103 0
    outer loop
      vertex 0 0 0
      vertex -0.655572 -6.45566 6
      vertex -0.655572 -6.45566 0
    endloop
  endfacet
  facet normal 0.95409 -0.299519 0
    outer loop
      vertex -2.59364 -12.6292 6
      vertex -0.655572 -6.45566 0
      vertex -0.655572 -6.45566 6
    endloop
  endfacet
  facet normal 0.95409 -0.299519 0
    outer loop
      vertex -0.655572 -6.45566 0
      vertex -2.59364 -12.6292 6
      vertex -2.59364 -12.6292 0
    endloop
  endfacet
  facet normal 0.418514 0.90821 -0
    outer loop
      vertex -15 26.8901 0
      vertex -20.5118 29.43 5.29002
      vertex -15 26.8901 5.5981
    endloop
  endfacet
  facet normal 0.418514 0.90821 0
    outer loop
      vertex -20.5118 29.43 5.29002
      vertex -15 26.8901 0
      vertex -20.5118 29.43 0
    endloop
  endfacet
  facet normal 0.601014 0.799239 -0
    outer loop
      vertex -9.92608 23.0746 0
      vertex -15 26.8901 5.5981
      vertex -9.92608 23.0746 5.8817
    endloop
  endfacet
  facet normal 0.601014 0.799239 0
    outer loop
      vertex -15 26.8901 5.5981
      vertex -9.92608 23.0746 0
      vertex -15 26.8901 0
    endloop
  endfacet
  facet normal 0.95409 0.299519 0
    outer loop
      vertex -0.655572 6.45566 6
      vertex -2.59364 12.6292 0
      vertex -2.59364 12.6292 6
    endloop
  endfacet
  facet normal 0.95409 0.299519 0
    outer loop
      vertex -2.59364 12.6292 0
      vertex -0.655572 6.45566 6
      vertex -0.655572 6.45566 0
    endloop
  endfacet
  facet normal 0.601014 -0.799239 0
    outer loop
      vertex -9.92608 -23.0746 0
      vertex -15 -26.8901 5.5981
      vertex -15 -26.8901 0
    endloop
  endfacet
  facet normal 0.601014 -0.799239 0
    outer loop
      vertex -15 -26.8901 5.5981
      vertex -9.92608 -23.0746 0
      vertex -9.92608 -23.0746 5.8817
    endloop
  endfacet
  facet normal -0.41866 -0.908143 0
    outer loop
      vertex -39.4882 -29.43 0
      vertex -39.7344 -29.3165 4.21558
      vertex -39.7344 -29.3165 0
    endloop
  endfacet
  facet normal -0.41866 -0.908143 0
    outer loop
      vertex -39.7344 -29.3165 4.21558
      vertex -39.4882 -29.43 0
      vertex -39.4882 -29.43 4.22934
    endloop
  endfacet
  facet normal -0.41866 0.908143 0
    outer loop
      vertex -39.4882 29.43 0
      vertex -39.7344 29.3165 4.21558
      vertex -39.4882 29.43 4.22934
    endloop
  endfacet
  facet normal -0.41866 0.908143 0
    outer loop
      vertex -39.7344 29.3165 4.21558
      vertex -39.4882 29.43 0
      vertex -39.7344 29.3165 0
    endloop
  endfacet
  facet normal 0.418514 -0.90821 0
    outer loop
      vertex -15 -26.8901 0
      vertex -20.5118 -29.43 5.29002
      vertex -20.5118 -29.43 0
    endloop
  endfacet
  facet normal 0.418514 -0.90821 0
    outer loop
      vertex -20.5118 -29.43 5.29002
      vertex -15 -26.8901 0
      vertex -15 -26.8901 5.5981
    endloop
  endfacet
  facet normal 0.873312 -0.487161 0
    outer loop
      vertex -5.72949 -18.2507 6
      vertex -2.59364 -12.6292 0
      vertex -2.59364 -12.6292 6
    endloop
  endfacet
  facet normal 0.873312 -0.487161 0
    outer loop
      vertex -2.59364 -12.6292 0
      vertex -5.72949 -18.2507 6
      vertex -5.72949 -18.2507 0
    endloop
  endfacet
  facet normal 0 0 1
    outer loop
      vertex -0.655572 6.45566 6
      vertex -0.655572 -6.45566 6
      vertex 0 0 6
    endloop
  endfacet
  facet normal 0 0 1
    outer loop
      vertex -7.80962 20.6418 6
      vertex -0.655572 6.45566 6
      vertex -2.59364 12.6292 6
    endloop
  endfacet
  facet normal 0 0 1
    outer loop
      vertex -0.655572 6.45566 6
      vertex -7.80962 20.6418 6
      vertex -0.655572 -6.45566 6
    endloop
  endfacet
  facet normal 0 0 1
    outer loop
      vertex -7.80962 20.6418 6
      vertex -2.59364 12.6292 6
      vertex -5.72949 18.2507 6
    endloop
  endfacet
  facet normal 0 0 1
    outer loop
      vertex -7.80962 -20.6418 6
      vertex -0.655572 -6.45566 6
      vertex -7.80962 20.6418 6
    endloop
  endfacet
  facet normal 0 0 1
    outer loop
      vertex -0.655572 -6.45566 6
      vertex -7.80962 -20.6418 6
      vertex -2.59364 -12.6292 6
    endloop
  endfacet
  facet normal 0 0 1
    outer loop
      vertex -2.59364 -12.6292 6
      vertex -7.80962 -20.6418 6
      vertex -5.72949 -18.2507 6
    endloop
  endfacet
  facet normal 0.754463 -0.656343 0
    outer loop
      vertex -7.80962 -20.6418 6
      vertex -5.72949 -18.2507 0
      vertex -5.72949 -18.2507 6
    endloop
  endfacet
  facet normal 0.754455 -0.656352 0
    outer loop
      vertex -9.92608 -23.0746 0
      vertex -7.80962 -20.6418 6
      vertex -9.92608 -23.0746 5.8817
    endloop
  endfacet
  facet normal 0.754459 -0.656347 -3.31678e-06
    outer loop
      vertex -7.80962 -20.6418 6
      vertex -9.92608 -23.0746 0
      vertex -5.72949 -18.2507 0
    endloop
  endfacet
  facet normal 0 1 0
    outer loop
      vertex -33.8574 29.43 4.54407
      vertex -38.133 29.43 4.30509
      vertex -38.133 29.43 4.32515
    endloop
  endfacet
  facet normal 0 1 -0
    outer loop
      vertex -20.5118 29.43 0
      vertex -33.8574 29.43 4.54407
      vertex -20.5118 29.43 5.29002
    endloop
  endfacet
  facet normal 0 1 0
    outer loop
      vertex -39.4882 29.43 0
      vertex -33.8574 29.43 4.54407
      vertex -20.5118 29.43 0
    endloop
  endfacet
  facet normal 0 1 0
    outer loop
      vertex -33.8574 29.43 4.54407
      vertex -39.4882 29.43 0
      vertex -38.133 29.43 4.30509
    endloop
  endfacet
  facet normal 0 1 0
    outer loop
      vertex -38.133 29.43 4.30509
      vertex -39.4882 29.43 0
      vertex -39.4882 29.43 4.22934
    endloop
  endfacet
  facet normal 0 -1 0
    outer loop
      vertex -38.133 -29.43 4.30509
      vertex -33.8574 -29.43 4.54407
      vertex -38.133 -29.43 4.32515
    endloop
  endfacet
  facet normal 0 -1 0
    outer loop
      vertex -39.4882 -29.43 0
      vertex -33.8574 -29.43 4.54407
      vertex -38.133 -29.43 4.30509
    endloop
  endfacet
  facet normal 0 -1 0
    outer loop
      vertex -39.4882 -29.43 0
      vertex -38.133 -29.43 4.30509
      vertex -39.4882 -29.43 4.22934
    endloop
  endfacet
  facet normal 0 -1 -0
    outer loop
      vertex -33.8574 -29.43 4.54407
      vertex -39.4882 -29.43 0
      vertex -20.5118 -29.43 0
    endloop
  endfacet
  facet normal 0 -1 0
    outer loop
      vertex -33.8574 -29.43 4.54407
      vertex -20.5118 -29.43 0
      vertex -20.5118 -29.43 5.29002
    endloop
  endfacet
endsolid OpenSCAD_Model
